<svg width="16" height="16" viewBox="0 0 16 16" fill="none" xmlns="http://www.w3.org/2000/svg">
<path d="M3.10268 12.0752C2.78165 11.7699 2.45563 11.4839 2.15748 11.1714C1.34956 10.3249 0.772574 9.33609 0.412942 8.2243C0.367184 8.08345 0.365754 7.89899 0.415803 7.761C1.43965 4.92756 3.41441 3.13869 6.3551 2.46804C8.24549 2.03691 10.0601 2.33434 11.7753 3.22949C11.889 3.28883 11.9383 3.25237 12.012 3.17873C13.0072 2.18062 14.0032 1.18323 15.0027 0.188704C15.3388 -0.145905 15.8564 -0.0164941 15.9787 0.42679C16.0294 0.611254 15.988 0.779988 15.8721 0.929417C15.8357 0.975891 15.7906 1.01593 15.7492 1.05811C10.853 5.95211 5.95614 10.8461 1.06142 15.7423C0.891261 15.9124 0.708227 16.0304 0.461561 15.9782C0.242064 15.9317 0.0897732 15.7987 0.0261405 15.5778C-0.0353474 15.3655 0.0118418 15.176 0.165561 15.0201C0.524479 14.6562 0.888401 14.2959 1.25018 13.9341C1.82645 13.3578 2.40272 12.7823 2.97899 12.206C3.02403 12.161 3.06693 12.1131 3.10339 12.0744L3.10268 12.0752ZM9.56319 5.62108C8.56508 4.92112 7.01788 4.93971 5.97974 5.97857C4.93158 7.02744 4.93158 8.58108 5.62868 9.56417C5.87249 9.31822 6.11129 9.07084 6.35796 8.83203C6.43303 8.75911 6.44518 8.70191 6.40515 8.60181C6.27216 8.26792 6.24857 7.9233 6.34223 7.57225C6.6082 6.57414 7.64348 6.03863 8.61013 6.39683C8.66161 6.41613 8.75026 6.42614 8.78101 6.39683C9.04698 6.14373 9.30294 5.88133 9.5639 5.62037L9.56319 5.62108Z" fill="#A5A4A4"/>
<path d="M4.64703 12.971C4.69136 12.9224 4.72568 12.8817 4.76286 12.8452C5.45281 12.1552 6.14347 11.4667 6.83056 10.7746C6.91493 10.6895 6.98357 10.6631 7.10726 10.7031C8.82534 11.2601 10.5777 10.1547 10.8287 8.36659C10.8902 7.92688 10.8344 7.50433 10.7107 7.08321C10.6921 7.01958 10.705 6.91305 10.7479 6.87015C11.5801 6.02791 12.4181 5.19282 13.256 4.3563C13.2718 4.34057 13.2925 4.32841 13.3204 4.30768C13.7916 4.71879 14.1969 5.18138 14.5523 5.68901C14.9977 6.32534 15.3395 7.01314 15.5876 7.74957C15.6455 7.92187 15.6462 8.08131 15.5833 8.25148C14.5144 11.1478 12.4789 12.9389 9.45095 13.5637C7.87085 13.8898 6.33223 13.6846 4.84651 13.064C4.78288 13.0375 4.72139 13.0068 4.64703 12.9725V12.971Z" fill="#A5A4A4"/>
<path d="M7.90802 9.69786C8.51074 9.08584 9.08701 8.49956 9.68831 7.88826C9.78626 8.78126 9.00837 9.7522 7.90802 9.69786Z" fill="#A5A4A4"/>
</svg>
